<svg width="150" height="185" viewBox="0 0 150 185" fill="none" xmlns="http://www.w3.org/2000/svg">
<circle cx="75" cy="75" r="75" fill="#fff"/>
<circle cx="75" cy="75" r="70" fill="#14878E"/>
<path d="M20.9785 185H14.5977L5.14062 159.688H12.2598L19.2734 180.061L25.6191 159.688H29.9434L20.9785 185ZM51.1777 185H33.002V159.688H51.1777V162.922H39.9805V170.744H48.6289V173.961H39.9805V181.766H51.1777V185ZM62.4805 185H55.502V159.688H67.9473C69.1191 159.688 70.25 159.828 71.3398 160.109C72.4297 160.379 73.3906 160.812 74.2227 161.41C75.0664 161.996 75.7344 162.758 76.2266 163.695C76.7305 164.633 76.9824 165.77 76.9824 167.105C76.9824 168.148 76.7598 169.133 76.3145 170.059C75.8809 170.973 75.2949 171.793 74.5566 172.52C73.8301 173.234 72.9922 173.832 72.043 174.312C71.0938 174.781 70.1094 175.092 69.0898 175.244C69.5469 176.018 70.0215 176.75 70.5137 177.441C71.0176 178.133 71.5215 178.783 72.0254 179.393C72.541 179.99 73.0508 180.547 73.5547 181.062C74.0586 181.566 74.5391 182.029 74.9961 182.451C76.0742 183.436 77.1406 184.285 78.1953 185H69.4941C68.791 184.332 68.123 183.529 67.4902 182.592C66.9512 181.795 66.4062 180.811 65.8555 179.639C65.3164 178.455 64.9004 177.09 64.6074 175.543H62.4805V185ZM69.8984 167.105C69.8984 165.406 69.4824 164.158 68.6504 163.361C67.8301 162.564 66.5938 162.166 64.9414 162.166H62.4805V173.152H64.9414C65.8203 173.152 66.5703 172.988 67.1914 172.66C67.8242 172.32 68.3398 171.875 68.7383 171.324C69.1367 170.762 69.4297 170.117 69.6172 169.391C69.8047 168.664 69.8984 167.902 69.8984 167.105ZM92.6973 185H85.7188V162.922H78.8281V159.688H99.5879V162.922H92.6973V185ZM121.35 185H103.174V159.688H121.35V162.922H110.152V170.744H118.801V173.961H110.152V181.766H121.35V185ZM147.084 185H139.965L134.023 176.123L127.941 185H123.02L132.16 173.363L123.02 159.688H130.139L135.887 168.283L142.162 159.688H147.084L137.75 171.061L147.084 185Z" fill="#fff"/>
<line y1="72" x2="35" y2="72" stroke="white" stroke-width="4"/>
<line x1="33.6271" y1="70.7661" x2="47.8669" y2="117.547" stroke="white" stroke-width="4"/>
<line x1="47.3159" y1="118.163" x2="72.3113" y2="35.165" stroke="white" stroke-width="4"/>
<line x1="72.4477" y1="37.5276" x2="86.934" y2="92.4903" stroke="white" stroke-width="4"/>
<line x1="86.1102" y1="92.3453" x2="96.5852" y2="62.1083" stroke="white" stroke-width="4"/>
<line x1="95.5336" y1="62.6576" x2="103.534" y2="80.66" stroke="white" stroke-width="4"/>
<line x1="107.968" y1="68.3044" x2="103.07" y2="81.7608" stroke="white" stroke-width="4"/>
<line x1="107.816" y1="65.8425" x2="113.185" y2="74.2792" stroke="white" stroke-width="4"/>
<line x1="112" y1="73" x2="150" y2="73" stroke="white" stroke-width="4"/>
<line x1="40" y1="14" x2="40" y2="51" stroke="black" stroke-width="2"/>
<ellipse cx="40" cy="49" rx="2" ry="4" fill="#FBF700"/>
<circle cx="40" cy="54" r="5" fill="#FBF700"/>
<ellipse cx="57" cy="30.5" rx="1" ry="1.5" fill="#FBF700"/>
<circle cx="57" cy="33.5" r="2.5" fill="#FBF700"/>
<line x1="56.75" y1="7" x2="56.75" y2="29" stroke="black" stroke-width="1.5"/>
</svg>
