<svg width="200" height="200" viewBox="0 0 200 200" fill="none" xmlns="http://www.w3.org/2000/svg">
<rect width="200" height="200" fill="#E5E5E5"/>
<rect width="200" height="200" fill="white"/>
<circle cx="100" cy="82" r="75" fill="#073F74"/>
<circle cx="100" cy="82" r="70" fill="#14878E"/>
<path d="M45.9785 192H39.5977L30.1406 166.688H37.2598L44.2734 187.061L50.6191 166.688H54.9434L45.9785 192ZM76.1777 192H58.002V166.688H76.1777V169.922H64.9805V177.744H73.6289V180.961H64.9805V188.766H76.1777V192ZM87.4805 192H80.502V166.688H92.9473C94.1191 166.688 95.25 166.828 96.3398 167.109C97.4297 167.379 98.3906 167.812 99.2227 168.41C100.066 168.996 100.734 169.758 101.227 170.695C101.73 171.633 101.982 172.77 101.982 174.105C101.982 175.148 101.76 176.133 101.314 177.059C100.881 177.973 100.295 178.793 99.5566 179.52C98.8301 180.234 97.9922 180.832 97.043 181.312C96.0938 181.781 95.1094 182.092 94.0898 182.244C94.5469 183.018 95.0215 183.75 95.5137 184.441C96.0176 185.133 96.5215 185.783 97.0254 186.393C97.541 186.99 98.0508 187.547 98.5547 188.062C99.0586 188.566 99.5391 189.029 99.9961 189.451C101.074 190.436 102.141 191.285 103.195 192H94.4941C93.791 191.332 93.123 190.529 92.4902 189.592C91.9512 188.795 91.4062 187.811 90.8555 186.639C90.3164 185.455 89.9004 184.09 89.6074 182.543H87.4805V192ZM94.8984 174.105C94.8984 172.406 94.4824 171.158 93.6504 170.361C92.8301 169.564 91.5938 169.166 89.9414 169.166H87.4805V180.152H89.9414C90.8203 180.152 91.5703 179.988 92.1914 179.66C92.8242 179.32 93.3398 178.875 93.7383 178.324C94.1367 177.762 94.4297 177.117 94.6172 176.391C94.8047 175.664 94.8984 174.902 94.8984 174.105ZM117.697 192H110.719V169.922H103.828V166.688H124.588V169.922H117.697V192ZM146.35 192H128.174V166.688H146.35V169.922H135.152V177.744H143.801V180.961H135.152V188.766H146.35V192ZM172.084 192H164.965L159.023 183.123L152.941 192H148.02L157.16 180.363L148.02 166.688H155.139L160.887 175.283L167.162 166.688H172.084L162.75 178.061L172.084 192Z" fill="#073F74"/>
<line x1="25" y1="79" x2="60" y2="79" stroke="white" stroke-width="4"/>
<line x1="58.6271" y1="77.7661" x2="72.8669" y2="124.547" stroke="white" stroke-width="4"/>
<line x1="72.3159" y1="125.163" x2="97.3113" y2="42.165" stroke="white" stroke-width="4"/>
<line x1="97.4477" y1="44.5276" x2="111.934" y2="99.4903" stroke="white" stroke-width="4"/>
<line x1="111.11" y1="99.3453" x2="121.585" y2="69.1083" stroke="white" stroke-width="4"/>
<line x1="120.534" y1="69.6576" x2="128.534" y2="87.66" stroke="white" stroke-width="4"/>
<line x1="132.968" y1="75.3044" x2="128.07" y2="88.7608" stroke="white" stroke-width="4"/>
<line x1="132.816" y1="72.8425" x2="138.185" y2="81.2792" stroke="white" stroke-width="4"/>
<line x1="137" y1="80" x2="175" y2="80" stroke="white" stroke-width="4"/>
<line x1="65" y1="21" x2="65" y2="58" stroke="black" stroke-width="2"/>
<ellipse cx="65" cy="56" rx="2" ry="4" fill="#FBF700"/>
<circle cx="65" cy="61" r="5" fill="#FBF700"/>
<ellipse cx="82" cy="37.5" rx="1" ry="1.5" fill="#FBF700"/>
<circle cx="82" cy="40.5" r="2.5" fill="#FBF700"/>
<line x1="81.75" y1="14" x2="81.75" y2="36" stroke="black" stroke-width="1.5"/>
</svg>
